<svg xmlns="http://www.w3.org/2000/svg" xmlns:xlink="http://www.w3.org/1999/xlink" viewBox="0 0 100 100"><defs><style>.cls-1{isolation:isolate;}.cls-2{opacity:0.29;}.cls-3{fill:#8a858b;}.cls-4{fill:#270e0e;}.cls-5{opacity:0.5;mix-blend-mode:soft-light;}.cls-6{fill:#fff;}.cls-18,.cls-7{opacity:0.2;}.cls-18,.cls-28,.cls-7{mix-blend-mode:multiply;}.cls-8{fill:#1e0e0c;}.cls-9{fill:#bb9087;}.cls-10{fill:#371211;}.cls-11{fill:#9a6528;}.cls-12{fill:#5eb847;}.cls-13{fill:#ad712f;}.cls-14{fill:#fbb316;}.cls-15{fill:#e31e25;}.cls-16,.cls-18{fill:#d72028;}.cls-17{fill:#ec313e;}.cls-19{fill:#8f5a24;}.cls-20{fill:#eba021;}.cls-21{fill:#f06a22;}.cls-22{fill:#f38320;}.cls-23{fill:#339345;}.cls-24{fill:#2a8140;}.cls-25{fill:#ec2a24;}.cls-26{fill:#ee4c23;}.cls-27{fill:#f38149;}.cls-28{opacity:0.3;}.cls-29{fill:#3ea24b;}.cls-30{fill:#fbc517;}.cls-31{fill:url(#linear-gradient);}.cls-32{fill:url(#linear-gradient-2);}.cls-33{fill:url(#linear-gradient-3);}.cls-34{fill:#fceec3;}.cls-35{fill:#fff6e0;}.cls-36{fill:#fadb89;}.cls-37{fill:#fce290;}</style><linearGradient id="linear-gradient" x1="35.68" y1="32.99" x2="36.88" y2="48.3" gradientUnits="userSpaceOnUse"><stop offset="0" stop-color="#fff" stop-opacity="0"/><stop offset="0.31" stop-color="#fffcf5" stop-opacity="0.16"/><stop offset="1" stop-color="#fff6e0" stop-opacity="0.5"/></linearGradient><linearGradient id="linear-gradient-2" x1="48.53" y1="34.7" x2="49.73" y2="50.02" xlink:href="#linear-gradient"/><linearGradient id="linear-gradient-3" x1="59.15" y1="32.17" x2="60.35" y2="47.48" xlink:href="#linear-gradient"/></defs><title>SVG</title><g class="cls-1"><g id="Layer_1" data-name="Layer 1"><g id="_Group_" data-name="&lt;Group&gt;"><g id="_Group_2" data-name="&lt;Group&gt;" class="cls-2"><ellipse id="_Path_" data-name="&lt;Path&gt;" class="cls-3" cx="50" cy="67.24" rx="25.02" ry="3.35"/></g><g id="_Group_3" data-name="&lt;Group&gt;"><g id="_Group_4" data-name="&lt;Group&gt;"><path id="_Path_2" data-name="&lt;Path&gt;" class="cls-4" d="M63.36,65.15A3.92,3.92,0,0,1,60.3,69l-1.3.29a44.34,44.34,0,0,1-19.4,0L38.4,69a3.92,3.92,0,0,1-3-3,3.86,3.86,0,0,1-.09-.84h28Z"/><g id="_Group_5" data-name="&lt;Group&gt;" class="cls-5"><path id="_Path_3" data-name="&lt;Path&gt;" class="cls-6" d="M38.85,68.88c-1.46-.11-2.36-1.18-3.24-2.31A3.92,3.92,0,0,0,38.4,69l1.19.27a44.34,44.34,0,0,0,19.4,0L60.3,69a3.91,3.91,0,0,0,2-1.18C55.31,71.32,46.5,69.83,38.85,68.88Z"/></g><g id="_Group_6" data-name="&lt;Group&gt;" class="cls-7"><path id="_Path_4" data-name="&lt;Path&gt;" class="cls-4" d="M63.36,65.15a3.93,3.93,0,0,1-.09.84,27.74,27.74,0,0,1-13.92,3.36A27.74,27.74,0,0,1,35.44,66a3.86,3.86,0,0,1-.09-.84h28Z"/></g><path id="_Path_5" data-name="&lt;Path&gt;" class="cls-8" d="M49.35,46.7H22.77s3.14,22,26.58,22,26.58-22,26.58-22Z"/><g id="_Group_7" data-name="&lt;Group&gt;" class="cls-5"><path id="_Path_6" data-name="&lt;Path&gt;" class="cls-6" d="M49.35,46.7H22.77a20.19,20.19,0,0,0,.5,2.22,7.65,7.65,0,0,0,2.53,1.83,42.3,42.3,0,0,0,13.33,3.73,91.51,91.51,0,0,0,18.12,0c3.73-.27,7.33-.13,11.19-1.07a14.31,14.31,0,0,0,6.13-3.2,50.69,50.69,0,0,1-3.79,8.4A29.25,29.25,0,0,0,75.94,46.7Z"/></g><g id="_Group_8" data-name="&lt;Group&gt;" class="cls-7"><path id="_Path_7" data-name="&lt;Path&gt;" class="cls-4" d="M45.12,64.61c-4.53-.27-8.66-2.4-12.26-5.33-3-2.28-5.58-4.56-8.37-6.79C27.18,59,33.8,68.69,49.35,68.69c8.31,0,14.06-2.76,18-6.32C60.33,64.75,52.53,64.92,45.12,64.61Z"/></g><ellipse id="_Path_8" data-name="&lt;Path&gt;" class="cls-9" cx="49.35" cy="46.7" rx="26.58" ry="8.2"/><path id="_Path_9" data-name="&lt;Path&gt;" class="cls-10" d="M74.53,46.7c0,1.52-1.62,2.92-4.4,4.08-4.54,1.9-12.15,3.14-20.78,3.14h-.47c-8.43,0-15.85-1.28-20.3-3.14-2.78-1.16-4.4-2.57-4.4-4.08,0-4,11.27-7.23,25.17-7.23S74.53,42.71,74.53,46.7Z"/><path id="_Path_10" data-name="&lt;Path&gt;" class="cls-11" d="M70.73,49.42a1.91,1.91,0,0,1-.61,1.36c-4.54,1.9-12.15,3.14-20.78,3.14h-.47c-8.43,0-15.85-1.28-20.3-3.14a1.91,1.91,0,0,1-.6-1.36c0-3.39,9.57-7.77,21.38-7.77S70.73,46,70.73,49.42Z"/><path id="_Path_11" data-name="&lt;Path&gt;" class="cls-12" d="M61.57,44.25a7.21,7.21,0,0,0-4.25-1.2c-2.55.08-5.1.17-5.1.17a22.35,22.35,0,0,0,4.67.51A11.57,11.57,0,0,1,61.57,44.25Z"/><path id="_Path_12" data-name="&lt;Path&gt;" class="cls-12" d="M46.57,45a7.21,7.21,0,0,0-4.25-1.2c-2.55.08-5.1.17-5.1.17a22.36,22.36,0,0,0,4.67.51A11.57,11.57,0,0,1,46.57,45Z"/><ellipse id="_Path_13" data-name="&lt;Path&gt;" class="cls-13" cx="60.13" cy="49.99" rx="1.27" ry="0.36"/><ellipse id="_Path_14" data-name="&lt;Path&gt;" class="cls-13" cx="64.93" cy="48.78" rx="0.94" ry="0.36"/><ellipse id="_Path_15" data-name="&lt;Path&gt;" class="cls-13" cx="53.28" cy="53.07" rx="0.94" ry="0.36"/><ellipse id="_Path_16" data-name="&lt;Path&gt;" class="cls-13" cx="35.7" cy="51.98" rx="0.94" ry="0.36"/><ellipse id="_Path_17" data-name="&lt;Path&gt;" class="cls-13" cx="31.47" cy="49.24" rx="0.94" ry="0.36"/><ellipse id="_Path_18" data-name="&lt;Path&gt;" class="cls-13" cx="44.24" cy="45.31" rx="0.94" ry="0.36"/><path id="_Path_19" data-name="&lt;Path&gt;" class="cls-14" d="M43.49,52.1c-.84,0-3-.27-3.15-1-.07-.31.16-.59.68-.81a.27.27,0,0,1,.21.49,1,1,0,0,0-.36.22,5.44,5.44,0,0,0,2.74.59c.32,0,.73-.07,1.15-.13a9.5,9.5,0,0,1,3.88,0,3.17,3.17,0,0,0,2.51-.5,6.41,6.41,0,0,1,1.37-.57l.81-.23c1.3-.38,2.91-.85,4.12-.18s4.08.57,5.69,0a6.51,6.51,0,0,1,1.41-.35,5.18,5.18,0,0,0,1.63-.51c.35-.15.42-.28.42-.31s-.61-.52-1.24-.7a.27.27,0,0,1,.15-.51c.37.11,1.57.53,1.61,1.18,0,.32-.23.6-.73.83a5.68,5.68,0,0,1-1.77.55,6,6,0,0,0-1.31.33c-1.55.55-4.63.8-6.13,0-1-.57-2.51-.13-3.71.22l-.83.23a5.93,5.93,0,0,0-1.25.53,3.63,3.63,0,0,1-2.91.54,9.12,9.12,0,0,0-3.65,0c-.44.06-.86.11-1.2.13Z"/><g id="_Group_9" data-name="&lt;Group&gt;"><g id="_Group_10" data-name="&lt;Group&gt;"><path id="_Path_20" data-name="&lt;Path&gt;" class="cls-15" d="M42.91,44.07s-.09-1.21-.05-1.41.82-.24.82-.24L44,43.57Z"/><polygon id="_Path_21" data-name="&lt;Path&gt;" class="cls-16" points="43.95 43.57 44.14 43.64 44.51 43.79 43.84 44.23 42.91 44.07 43.95 43.57"/><polygon id="_Path_22" data-name="&lt;Path&gt;" class="cls-17" points="43.68 42.41 44.29 42.52 44.51 43.79 44.14 43.64 43.95 43.57 43.68 42.41"/></g><path id="_Path_23" data-name="&lt;Path&gt;" class="cls-18" d="M44.12,42.49l.16,0,.22,1.27-.67.44-.19,0a1.28,1.28,0,0,0,.31-.29c.07-.1.13-.18.19-.27A.71.71,0,0,0,44.2,43,2,2,0,0,1,44.12,42.49Z"/><path id="_Path_24" data-name="&lt;Path&gt;" class="cls-17" d="M43.14,42.79s-.26.26-.06.34S43.49,42.81,43.14,42.79Z"/></g><path id="_Path_25" data-name="&lt;Path&gt;" class="cls-13" d="M51.61,42.17s-1.9-.7-2.89.06,2.4-.18,4.09.3S53.79,42.12,51.61,42.17Z"/><path id="_Path_26" data-name="&lt;Path&gt;" class="cls-19" d="M30.29,50.89a4.4,4.4,0,0,1-2.18-2.16,2.06,2.06,0,0,0-.13.7,1.91,1.91,0,0,0,.6,1.36c4.45,1.86,11.87,3.1,20.3,3.14h.47c2.13,0,4.19-.08,6.17-.22-1.33-.09-2.65-.21-3.91-.29C44.41,53,37.22,53.42,30.29,50.89Z"/><path id="_Path_27" data-name="&lt;Path&gt;" class="cls-19" d="M64.84,52.4a37.06,37.06,0,0,0,3.63-1A10.09,10.09,0,0,0,64.84,52.4Z"/><path id="_Path_28" data-name="&lt;Path&gt;" class="cls-13" d="M70.73,49.42c0-2.94-7.21-6.63-16.84-7.56,5.51.87,11,2.12,15.3,6.22a2.51,2.51,0,0,1,.19,3l.74-.29A1.91,1.91,0,0,0,70.73,49.42Z"/><path id="_Path_29" data-name="&lt;Path&gt;" class="cls-14" d="M43.88,52.19a.27.27,0,0,1-.25-.17,14.48,14.48,0,0,0-1.87-3.33c-.59-.71-1-1.72-.52-2.38.31-.45,1.08-.84,3-.18,2.35.8,4.08.53,4.42,0,0-.06.15-.23-.13-.56-.09-.1-.36-.42-.23-.73s.72-.43,1.65-.5a8.11,8.11,0,0,0,3-.61,7.76,7.76,0,0,1,6.33-.93,11.34,11.34,0,0,0,3.48-.1c1.37-.18,2.45-.32,2.88.27.27.37.21.93-.2,1.77a6.59,6.59,0,0,1-3.9,3.39,4.11,4.11,0,0,0-1.67,1c-1.08,1.37-4.42,3.27-5.89,2.3a.27.27,0,1,1,.29-.45c1.11.73,4.16-.89,5.18-2.18a4.45,4.45,0,0,1,1.88-1.17A6.06,6.06,0,0,0,65,44.53c.39-.82.32-1.12.24-1.23-.24-.33-1.33-.19-2.38-.05a11.72,11.72,0,0,1-3.65.1,7.27,7.27,0,0,0-6,.89A8.65,8.65,0,0,1,50,44.9a4.7,4.7,0,0,0-1.18.17.76.76,0,0,0,.13.18,1,1,0,0,1,.17,1.2c-.59.88-2.75,1-5,.18-1.24-.42-2.12-.43-2.4,0s0,1.1.49,1.74a14.73,14.73,0,0,1,2,3.47.27.27,0,0,1-.15.35Z"/><path id="_Path_30" data-name="&lt;Path&gt;" class="cls-20" d="M58.62,51.11a2.92,2.92,0,0,1-2.36-.81.27.27,0,1,1,.43-.32c.8,1.06,4.22.55,5.61-.32a2.63,2.63,0,0,1,2.13-.06,3.47,3.47,0,0,0,3.85-.91c.54-.54.78-1,.71-1.36-.14-.71-1.41-1.25-2.76-1.81a19.38,19.38,0,0,1-2.36-1.12,7.27,7.27,0,0,0-5.94-1.17,8.64,8.64,0,0,1-3.22-.43,4.66,4.66,0,0,0-1.17-.24.76.76,0,0,0,.06.21A1,1,0,0,1,53.35,44c-.85.63-2.91,0-4.8-1.52-1-.81-1.85-1.11-2.25-.82s-.41,1-.12,1.8a14.73,14.73,0,0,1,.68,3.93.27.27,0,0,1-.53,0,14.47,14.47,0,0,0-.64-3.76c-.32-.86-.35-1.94.31-2.42.44-.32,1.29-.43,2.89.84,1.95,1.54,3.66,1.87,4.15,1.51.05,0,.22-.16.06-.57,0-.13-.2-.51,0-.77s.82-.16,1.72.08a8.12,8.12,0,0,0,3,.42,7.76,7.76,0,0,1,6.28,1.24A19,19,0,0,0,66.43,45c1.55.65,2.89,1.21,3.08,2.2a2.14,2.14,0,0,1-.86,1.84,4,4,0,0,1-4.35,1,2.19,2.19,0,0,0-1.72,0A8.39,8.39,0,0,1,58.62,51.11Z"/><path id="_Path_31" data-name="&lt;Path&gt;" class="cls-20" d="M49.58,52.77c-3.39,0-5.36-1.42-7.28-2.8a13.28,13.28,0,0,0-5.91-2.81c-6.24-1-7.42,2.19-7.43,2.22a.27.27,0,0,1-.5-.17c.05-.15,1.35-3.66,8-2.57a13.72,13.72,0,0,1,6.14,2.9C45,51.27,47.28,52.9,52.23,52a.27.27,0,1,1,.1.52A15,15,0,0,1,49.58,52.77Z"/><path id="_Compound_Path_" data-name="&lt;Compound Path&gt;" class="cls-14" d="M62.61,52.34a10.76,10.76,0,0,1-1.26-.07A15.07,15.07,0,0,1,54.87,50l-.32-.18a16.13,16.13,0,0,1-5.72.85c-5.75-.34-7.41,1.49-7.42,1.51a.27.27,0,0,1-.4-.35c.07-.08,1.84-2,7.86-1.69a14.92,14.92,0,0,0,5-.68,6.93,6.93,0,0,0-3.45-.92.27.27,0,1,1,0-.53,7.81,7.81,0,0,1,4.17,1.23c.76-.24,1.51-.5,2.25-.76,2.82-1,5.74-2,8.82-1.54s3.09,1.77,3,2.32C68.49,50.82,65.89,52.34,62.61,52.34Zm-7.37-2.74a14.48,14.48,0,0,0,6.17,2.14c3.8.45,6.58-1.24,6.76-2.55.11-.81-.85-1.46-2.57-1.72C62.66,47,59.93,48,57,49Z"/><path id="_Path_32" data-name="&lt;Path&gt;" class="cls-14" d="M36.68,51.29a.27.27,0,0,1-.18-.46c1-.92,3.49-3.59,3-4.84-.27-.66-1.43-.77-2.35-.74-1.53,0-2.47.3-2.8.75s-.11.89,0,1.39.29,1,0,1.3a1.28,1.28,0,0,1-1.11.38,2,2,0,0,1-2.24-1.71c-.09-.3-.17-.55-.32-.61s-.37,0-1,.26a.27.27,0,1,1-.25-.47,1.72,1.72,0,0,1,1.4-.28c.38.16.5.56.62.95a1.53,1.53,0,0,0,1.73,1.33c.49,0,.63-.1.68-.16s0-.49-.11-.83a2,2,0,0,1,0-1.85c.44-.62,1.46-.93,3.22-1S39.67,45,40,45.79c.74,1.81-2.72,5.06-3.12,5.43A.27.27,0,0,1,36.68,51.29Z"/><path id="_Compound_Path_2" data-name="&lt;Compound Path&gt;" class="cls-20" d="M50.34,53.7h-.08a89.43,89.43,0,0,1-10.54-1.91l-.2.21c-.24.25-.46.49-.7.71-1.66,1.54-4.78-.93-4.91-1a.27.27,0,0,1,.33-.42s2.89,2.29,4.21,1.06c.22-.2.43-.42.65-.66l-1.85-.4c-2.69-.58-5.23-1.14-6.66-1.39-2-.35-2.85-.71-3-1.25s.45-.92,1.06-1.35l.2-.15a.27.27,0,1,1,.31.43L29,47.7c-.33.23-.89.63-.85.8s.21.43,2.54.84c1.44.25,3.87.78,6.68,1.39l2.17.47c1.21-1.23,2.86-2.49,6.6-1.89,3.38.54,5.79,2.3,5.68,3.52C51.79,53.16,51.56,53.7,50.34,53.7ZM40.16,51.34a87.63,87.63,0,0,0,10.1,1.82c.62,0,1-.13,1-.38.07-.73-1.87-2.4-5.23-2.94S41.29,50.26,40.16,51.34Z"/><path id="_Compound_Path_3" data-name="&lt;Compound Path&gt;" class="cls-20" d="M37.75,50.37c-1.63,0-3-.8-3.1-1.8,0-.47.18-1.62,3.15-2.09,3.93-.63,5.55.79,6.78,2.07L46.85,48c2.45-.61,4.76-1.19,6.41-1.48,2.83-.5,3.29-1.23,3.36-1.52s-.3-.73-.54-.9a.27.27,0,1,1,.31-.43,1.44,1.44,0,0,1,.75,1.46c-.2.87-1.47,1.52-3.79,1.93-1.63.29-3.93.86-6.37,1.47L45,49c.16.17.32.33.49.48,1.33,1.23,4.18-1,4.21-1.06a.27.27,0,0,1,.33.42c-.13.11-3.25,2.57-4.91,1-.24-.22-.46-.46-.7-.71l0,0a38.85,38.85,0,0,1-6.56,1.23Zm1.86-3.52a10.89,10.89,0,0,0-1.72.15c-2.07.33-2.75,1-2.71,1.52s1.16,1.35,2.66,1.32A36.58,36.58,0,0,0,44,48.69,5.58,5.58,0,0,0,39.61,46.85Z"/><path id="_Path_33" data-name="&lt;Path&gt;" class="cls-14" d="M62.23,49.13c-1.4,0-2.67-.77-4.21-1.71a18.64,18.64,0,0,0-7.79-3.06c-3.12-.41-4.21.16-4.58.7a1.78,1.78,0,0,0,.05,1.66.27.27,0,0,1-.47.26,2.29,2.29,0,0,1,0-2.21c.66-1,2.37-1.29,5.1-.93a19.1,19.1,0,0,1,8,3.13c1.7,1,3,1.86,4.54,1.58,1.32-.24,2.19-1,2.16-1.86s-1.14-2.11-4.19-2.47a.27.27,0,0,1,.06-.53c3.38.4,4.62,1.8,4.66,3s-1,2.1-2.6,2.4A3.88,3.88,0,0,1,62.23,49.13Z"/><g id="_Group_11" data-name="&lt;Group&gt;"><path id="_Path_34" data-name="&lt;Path&gt;" class="cls-21" d="M47.64,51.9l.25.29s5.6-1.41,8.51-5.26v-.58A35,35,0,0,1,47.64,51.9Z"/><path id="_Path_35" data-name="&lt;Path&gt;" class="cls-22" d="M47.59,51.42s5.73-1.74,8.35-5.31c0,0,.46.12.46.25a16.19,16.19,0,0,1-8.72,5.56S47.59,52,47.59,51.42Z"/><g id="_Group_12" data-name="&lt;Group&gt;" class="cls-5"><path id="_Path_36" data-name="&lt;Path&gt;" class="cls-6" d="M47.68,51.91a17.25,17.25,0,0,0,7.64-4.32,17.67,17.67,0,0,1-7.72,4.16C47.63,52,47.68,51.91,47.68,51.91Z"/></g></g><path id="_Path_37" data-name="&lt;Path&gt;" class="cls-14" d="M54.09,52.59c-3,0-5.77-4.35-5.91-4.56a.27.27,0,0,1,.45-.29c0,.05,3.52,5.46,6.48,4.09.59-.27.91-.54.93-.79,0-.44-.8-1-1.69-1.7a11.61,11.61,0,0,1-2.75-2.49c-1-1.48-1.21-3.16-.41-4.18s2.28-1.15,4.14-.43,3.4,2.33,4.93,3.91c1.93,2,3.75,3.86,5.68,3.41a7.25,7.25,0,0,0,4.71-3,.27.27,0,0,1,.47.26,7.67,7.67,0,0,1-5.06,3.25,3.16,3.16,0,0,1-.72.08c-1.93,0-3.65-1.78-5.47-3.64-1.49-1.53-3-3.11-4.74-3.78s-2.9-.53-3.52.26-.48,2.26.43,3.55a11.21,11.21,0,0,0,2.63,2.37c1.11.8,2,1.44,1.91,2.18,0,.46-.44.85-1.24,1.22A2.94,2.94,0,0,1,54.09,52.59Z"/><g id="_Group_13" data-name="&lt;Group&gt;"><path id="_Path_38" data-name="&lt;Path&gt;" class="cls-23" d="M42.9,44.78a66,66,0,0,1-8.26.35c-.77,0-1.86,1-.3,1.42s8.15-.28,8.83-.47A.66.66,0,0,0,42.9,44.78Z"/><path id="_Path_39" data-name="&lt;Path&gt;" class="cls-24" d="M41,46a8,8,0,0,0,2.61-.54.72.72,0,0,1-.5.67c-.68.19-7.27.88-8.83.47-.74-.2-.88-.54-.74-.84,1.71.78,4.17.55,6,.3C40.12,46,40.55,46,41,46Z"/><g id="_Group_14" data-name="&lt;Group&gt;" class="cls-5"><path id="_Path_40" data-name="&lt;Path&gt;" class="cls-6" d="M39.37,45.4a12.91,12.91,0,0,1-5.53,0,1.34,1.34,0,0,1,.31-.18,40.69,40.69,0,0,0,4.5,0C38.82,45.22,39.21,45.11,39.37,45.4Z"/></g><g id="_Group_15" data-name="&lt;Group&gt;" class="cls-5"><path id="_Path_41" data-name="&lt;Path&gt;" class="cls-6" d="M43.57,45.05v0a6.71,6.71,0,0,1-2.55.21A9.37,9.37,0,0,1,43.57,45.05Z"/></g></g><g id="_Group_16" data-name="&lt;Group&gt;"><path id="_Path_42" data-name="&lt;Path&gt;" class="cls-21" d="M40.54,40.81l0,.38s4.79,3.22,9.6,2.82l.43-.39A35,35,0,0,1,40.54,40.81Z"/><path id="_Path_43" data-name="&lt;Path&gt;" class="cls-22" d="M40.87,40.46s5.13,3.1,9.53,2.65c0,0,.22.43.12.51a16.19,16.19,0,0,1-10-2.76S40.4,40.87,40.87,40.46Z"/><g id="_Group_17" data-name="&lt;Group&gt;" class="cls-5"><path id="_Path_44" data-name="&lt;Path&gt;" class="cls-6" d="M40.56,40.86a17.25,17.25,0,0,0,8.32,2.79,17.67,17.67,0,0,1-8.26-3C40.47,40.86,40.56,40.86,40.56,40.86Z"/></g></g><path id="_Path_45" data-name="&lt;Path&gt;" class="cls-20" d="M61,50.75a.27.27,0,0,1-.17-.06,16.87,16.87,0,0,0-11.54-3.23,15.09,15.09,0,0,0-6.77,2.12c-1.66.91-2.75,1.51-4.44-.06s-2.34-3-2-4.1,2-2,4.69-2.3c5.28-.59,5.81-2.66,5.81-2.68a.27.27,0,0,1,.32-.2.26.26,0,0,1,.21.31c0,.1-.55,2.47-6.27,3.11-2.45.27-3.92.94-4.24,1.94s.35,2.16,1.82,3.54,2.22.87,3.82,0a15.56,15.56,0,0,1,7-2.18A17.42,17.42,0,0,1,61.2,50.28a.27.27,0,0,1-.17.47Z"/><g id="_Group_18" data-name="&lt;Group&gt;"><path id="_Path_46" data-name="&lt;Path&gt;" class="cls-21" d="M57.59,51.5l.24-.3S55.33,46,51,43.9l-.57.11A35,35,0,0,1,57.59,51.5Z"/><path id="_Path_47" data-name="&lt;Path&gt;" class="cls-22" d="M57.12,51.64s-2.84-5.27-6.86-7.13c0,0,0-.48.15-.5a16.19,16.19,0,0,1,7.18,7.44S57.73,51.52,57.12,51.64Z"/><g id="_Group_19" data-name="&lt;Group&gt;" class="cls-5"><path id="_Path_48" data-name="&lt;Path&gt;" class="cls-6" d="M57.59,51.46a17.25,17.25,0,0,0-5.74-6.63,17.67,17.67,0,0,1,5.61,6.74C57.67,51.49,57.59,51.46,57.59,51.46Z"/></g></g><g id="_Group_20" data-name="&lt;Group&gt;"><path id="_Path_49" data-name="&lt;Path&gt;" class="cls-21" d="M26.34,47.92l.1.37s5.68,1.06,9.93-1.21l.24-.53A35,35,0,0,1,26.34,47.92Z"/><path id="_Path_50" data-name="&lt;Path&gt;" class="cls-22" d="M26.5,47.46s5.93.82,9.8-1.33c0,0,.37.31.32.42A16.19,16.19,0,0,1,26.38,48S26.24,48,26.5,47.46Z"/><g id="_Group_21" data-name="&lt;Group&gt;" class="cls-5"><path id="_Path_51" data-name="&lt;Path&gt;" class="cls-6" d="M26.38,48a17.25,17.25,0,0,0,8.74-.72,17.67,17.67,0,0,1-8.75.55C26.3,48,26.38,48,26.38,48Z"/></g></g><g id="_Group_22" data-name="&lt;Group&gt;"><g id="_Group_23" data-name="&lt;Group&gt;"><path id="_Path_52" data-name="&lt;Path&gt;" class="cls-15" d="M33.74,46.51s.58,1.06.64,1.26-.64.56-.64.56L33,47.39Z"/><polygon id="_Path_53" data-name="&lt;Path&gt;" class="cls-16" points="33.01 47.39 32.81 47.41 32.41 47.43 32.84 46.74 33.74 46.51 33.01 47.39"/><polygon id="_Path_54" data-name="&lt;Path&gt;" class="cls-17" points="33.74 48.33 33.14 48.49 32.41 47.43 32.81 47.41 33.01 47.39 33.74 48.33"/></g><path id="_Path_55" data-name="&lt;Path&gt;" class="cls-18" d="M33.3,48.45l-.16,0-.73-1.06.43-.68.19-.05a1.28,1.28,0,0,0-.16.39c0,.12,0,.22-.06.32A.71.71,0,0,0,33,48,2,2,0,0,1,33.3,48.45Z"/><path id="_Path_56" data-name="&lt;Path&gt;" class="cls-17" d="M34.07,47.76s.13-.35-.09-.34S33.74,47.89,34.07,47.76Z"/></g><path id="_Path_57" data-name="&lt;Path&gt;" class="cls-14" d="M56.54,47.92a.27.27,0,0,1,0-.53,3,3,0,0,0,1.32-.4c.28-.18.49-.28,1.85-.29,1,0,1.08-.49,1.11-.65a2.11,2.11,0,0,0-.84-1.75,2.87,2.87,0,0,0-1.19.34,5.77,5.77,0,0,1-3.09.61,4.15,4.15,0,0,1-2.27-1.68,3.5,3.5,0,0,0-2-1.47A6.21,6.21,0,0,0,50.06,42l-.05,0a.27.27,0,0,1-.37-.08.29.29,0,0,1,0-.31c.11-.17.32-.29,1.86-.09a3.91,3.91,0,0,1,2.29,1.65,3.72,3.72,0,0,0,2,1.5,5.37,5.37,0,0,0,2.8-.58,2.64,2.64,0,0,1,1.55-.35,2.55,2.55,0,0,1,1.21,2.34c-.06.41-.36,1.09-1.63,1.1s-1.39.09-1.56.2a3.41,3.41,0,0,1-1.52.48Z"/><g id="_Group_24" data-name="&lt;Group&gt;"><path id="_Path_58" data-name="&lt;Path&gt;" class="cls-25" d="M59.69,40.16s.09-1,.64-.61,3.89,6.47.28,7.63A5.17,5.17,0,0,1,55.51,46l1.95-3s1.81,2.17,2.27.45A6.6,6.6,0,0,0,59.69,40.16Z"/><path id="_Path_59" data-name="&lt;Path&gt;" class="cls-26" d="M58.23,43.75a4.17,4.17,0,0,1-1,3.15l-.09.14a5,5,0,0,0,1.89.38c.14-.74.42-1.5.54-2.17a2.77,2.77,0,0,0,0-1.36C59.23,44.34,58.68,44.1,58.23,43.75Z"/><g id="_Group_25" data-name="&lt;Group&gt;" class="cls-5"><path id="_Path_60" data-name="&lt;Path&gt;" class="cls-6" d="M58,47c.14.76.83-.28,1-.69a6.27,6.27,0,0,0,.24-2.18,1.06,1.06,0,0,1-.89-.23C58.6,44.92,57.89,46,58,47Z"/></g><path id="_Path_61" data-name="&lt;Path&gt;" class="cls-26" d="M59.9,42.55a5.68,5.68,0,0,1-.14.84l.12.14a32.51,32.51,0,0,0,1.45,3.3,2.27,2.27,0,0,0,.91-1.64A1.42,1.42,0,0,1,62,45C61.17,44.28,60.82,43.1,59.9,42.55Z"/><g id="_Group_26" data-name="&lt;Group&gt;" class="cls-5"><path id="_Path_62" data-name="&lt;Path&gt;" class="cls-6" d="M61.8,45.39a8.59,8.59,0,0,0-1.92-2.7c0,.18,0,.35-.09.53.64.87.77,2,1.52,2.72C61.59,46.21,61.93,45.73,61.8,45.39Z"/></g><path id="_Path_63" data-name="&lt;Path&gt;" class="cls-26" d="M59.83,40.81a7.09,7.09,0,0,1,.09,1,2.84,2.84,0,0,0,1.74.39l.07,0a12.35,12.35,0,0,0-.5-1.17A2.24,2.24,0,0,0,59.83,40.81Z"/><g id="_Group_27" data-name="&lt;Group&gt;" class="cls-5"><path id="_Path_64" data-name="&lt;Path&gt;" class="cls-6" d="M61.25,41.33a2.79,2.79,0,0,0-1.39-.38c0,.18,0,.39.06.61.3.15.63.27.92.38C61.31,42.08,61.59,41.53,61.25,41.33Z"/></g><path id="_Path_65" data-name="&lt;Path&gt;" class="cls-26" d="M59.69,40.16s-1.06-.45-1.06-.7,1.19-1.47,1.61-1.33.09,1.41.09,1.41Z"/><path id="_Path_66" data-name="&lt;Path&gt;" class="cls-27" d="M60.36,39.41a1.89,1.89,0,0,0-.63-.84c.18.35.3.7.51,1.06l.09-.08Z"/><path id="_Path_67" data-name="&lt;Path&gt;" class="cls-27" d="M59.46,38.92a3.16,3.16,0,0,0,.55.93l0,0C59.95,39.42,59.88,39,59.46,38.92Z"/><path id="_Path_68" data-name="&lt;Path&gt;" class="cls-27" d="M58.91,39.19a9.27,9.27,0,0,0,1,.78l.05-.05A1.46,1.46,0,0,0,58.91,39.19Z"/><g id="_Group_28" data-name="&lt;Group&gt;" class="cls-28"><path id="_Path_69" data-name="&lt;Path&gt;" class="cls-26" d="M60.24,38.13a.35.35,0,0,0-.22,0,1.42,1.42,0,0,1,.13,1c-.24.71-.92.46-1.42.07a.46.46,0,0,0-.09.2c0,.25,1.06.7,1.06.7l.64-.61S60.65,38.27,60.24,38.13Z"/></g><g id="_Group_29" data-name="&lt;Group&gt;" class="cls-28"><path id="_Path_70" data-name="&lt;Path&gt;" class="cls-25" d="M57.53,44.22c.14.07.21-.14.34-.07a1.66,1.66,0,0,0,2,.07c1-.69.41-1.93.21-2.89a1.14,1.14,0,0,1,.53-1.45,1.48,1.48,0,0,0-.28-.33c-.55-.38-.64.61-.64.61a6.6,6.6,0,0,1,0,3.32c-.46,1.71-2.27-.45-2.27-.45l-1.95,3,.12.11A3.12,3.12,0,0,0,57.53,44.22Z"/></g><g id="_Group_30" data-name="&lt;Group&gt;" class="cls-5"><path id="_Path_71" data-name="&lt;Path&gt;" class="cls-6" d="M60.69,40c.52,2.25,2.14,4.64.42,6.49-1.29,1.29-3.74.64-5.29-.47l-.19.08a5.14,5.14,0,0,0,5,1.08C63.72,46.18,61.67,41.51,60.69,40Z"/></g><g id="_Group_31" data-name="&lt;Group&gt;"><g id="_Group_32" data-name="&lt;Group&gt;"><path id="_Path_72" data-name="&lt;Path&gt;" class="cls-25" d="M54.54,40.46s.54-.91,1.43-2.33A3.35,3.35,0,0,1,54.54,40.46Z"/><path id="_Path_73" data-name="&lt;Path&gt;" class="cls-25" d="M54.7,40.59a6.43,6.43,0,0,1-.83-3.28A15.18,15.18,0,0,1,54.7,40.59Z"/></g><path id="_Path_74" data-name="&lt;Path&gt;" class="cls-26" d="M55.51,46a9,9,0,0,1-1.1-1.61,4.38,4.38,0,0,1-.25-3.65c.11-.26.23-.65.56-.66a.27.27,0,0,1,.12,0c.08,0,.18.46.22.57s.19.45.29.67.34.83.62.79a1.37,1.37,0,0,1,1.65,1.37C57.62,44.38,55.51,46,55.51,46Z"/><g id="_Group_33" data-name="&lt;Group&gt;" class="cls-28"><path id="_Path_75" data-name="&lt;Path&gt;" class="cls-26" d="M56,42.1c-.24,0-.58-.67-.83-1.27,0,.6,0,1.2.53,1.45s1.65.62,1.31,1.38a2.91,2.91,0,0,1-2,1.61,6.12,6.12,0,0,0,.56.7s2.11-1.61,2.11-2.51A1.37,1.37,0,0,0,56,42.1Z"/></g><g id="_Group_34" data-name="&lt;Group&gt;" class="cls-5"><path id="_Path_76" data-name="&lt;Path&gt;" class="cls-6" d="M54.26,41.48a1.4,1.4,0,0,0-.14.45,2.47,2.47,0,0,0,0,.61,4,4,0,0,0,.42,1.2c.06.13.24.17.22,0a13.44,13.44,0,0,1-.38-1.8c0-.15,0-.39-.11-.49Z"/></g><g id="_Group_35" data-name="&lt;Group&gt;" class="cls-5"><path id="_Path_77" data-name="&lt;Path&gt;" class="cls-6" d="M55,44.85s-.45-.46-.13-.62S55.26,44.92,55,44.85Z"/></g></g></g><path id="_Path_78" data-name="&lt;Path&gt;" class="cls-12" d="M49,45.71A7.21,7.21,0,0,1,53.38,45c2.53.36,5,.73,5,.73a22.36,22.36,0,0,1-4.7,0A11.57,11.57,0,0,0,49,45.71Z"/><path id="_Path_79" data-name="&lt;Path&gt;" class="cls-12" d="M52.53,53.47a7.21,7.21,0,0,1,4.25-1.2c2.55.08,5.1.17,5.1.17A22.36,22.36,0,0,1,57.2,53,11.57,11.57,0,0,0,52.53,53.47Z"/><path id="_Path_80" data-name="&lt;Path&gt;" class="cls-12" d="M69.51,49.58a7.21,7.21,0,0,0-4.25-1.2c-2.55.08-5.1.17-5.1.17a22.36,22.36,0,0,0,4.67.51A11.57,11.57,0,0,1,69.51,49.58Z"/><g id="_Group_36" data-name="&lt;Group&gt;"><path id="_Path_81" data-name="&lt;Path&gt;" class="cls-25" d="M34,45.53s-1,.13-.74-.49,5.43-5.24,7.37-2a5.17,5.17,0,0,1,0,5.23l-3.32-1.24s1.71-2.25-.07-2.31A6.61,6.61,0,0,0,34,45.53Z"/><path id="_Path_82" data-name="&lt;Path&gt;" class="cls-26" d="M37.85,46.14a4.17,4.17,0,0,1,3.28.24l.16.06a5,5,0,0,0-.05-1.93c-.75,0-1.56-.07-2.24,0a2.77,2.77,0,0,0-1.32.35C38.2,45,38.08,45.63,37.85,46.14Z"/><g id="_Group_37" data-name="&lt;Group&gt;" class="cls-5"><path id="_Path_83" data-name="&lt;Path&gt;" class="cls-6" d="M41,45.63c.71-.3-.45-.74-.9-.85A6.27,6.27,0,0,0,38,45a1.06,1.06,0,0,1,0,.92C38.9,45.52,40.09,46,41,45.63Z"/></g><path id="_Path_84" data-name="&lt;Path&gt;" class="cls-26" d="M36.3,44.79a5.68,5.68,0,0,1,.85-.05l.11-.14a32.5,32.5,0,0,0,2.89-2.15,2.27,2.27,0,0,0-1.8-.52,1.42,1.42,0,0,1-.09.26C37.7,43.16,36.63,43.77,36.3,44.79Z"/><g id="_Group_38" data-name="&lt;Group&gt;" class="cls-5"><path id="_Path_85" data-name="&lt;Path&gt;" class="cls-6" d="M38.64,42.3a8.59,8.59,0,0,0-2.2,2.47l.54,0c.7-.82,1.74-1.19,2.31-2.09C39.49,42.32,38.94,42.09,38.64,42.3Z"/></g><path id="_Path_86" data-name="&lt;Path&gt;" class="cls-26" d="M34.62,45.24a7.09,7.09,0,0,1,.91-.3,2.84,2.84,0,0,0,0-1.78l0-.07a12.36,12.36,0,0,0-1,.75A2.24,2.24,0,0,0,34.62,45.24Z"/><g id="_Group_39" data-name="&lt;Group&gt;" class="cls-5"><path id="_Path_87" data-name="&lt;Path&gt;" class="cls-6" d="M34.81,43.75a2.79,2.79,0,0,0-.05,1.44c.17-.07.37-.13.58-.2.08-.33.12-.68.17-1C35.53,43.51,34.93,43.37,34.81,43.75Z"/></g><path id="_Path_88" data-name="&lt;Path&gt;" class="cls-26" d="M34,45.53s-.2,1.13-.44,1.18-1.7-.83-1.65-1.27S33.28,45,33.28,45Z"/><path id="_Path_89" data-name="&lt;Path&gt;" class="cls-27" d="M33.14,45a1.89,1.89,0,0,0-.68.8c.3-.25.62-.45.92-.73l-.1-.07Z"/><path id="_Path_90" data-name="&lt;Path&gt;" class="cls-27" d="M32.86,46a3.16,3.16,0,0,0,.78-.75l-.06,0C33.24,45.44,32.86,45.6,32.86,46Z"/><path id="_Path_91" data-name="&lt;Path&gt;" class="cls-27" d="M33.25,46.51a9.27,9.27,0,0,0,.54-1.12l-.06,0A1.46,1.46,0,0,0,33.25,46.51Z"/><path id="_Path_92" data-name="&lt;Path&gt;" class="cls-26" d="M31.92,45.45a.35.35,0,0,0,.07.21,1.42,1.42,0,0,1,1-.36c.74.07.65.8.38,1.37a.46.46,0,0,0,.22,0c.24-.06.44-1.18.44-1.18L33.28,45S32,45,31.92,45.45Z"/><g id="_Group_40" data-name="&lt;Group&gt;" class="cls-28"><path id="_Path_93" data-name="&lt;Path&gt;" class="cls-25" d="M38.46,46.72c0-.15-.18-.17-.14-.32a1.66,1.66,0,0,0-.38-2c-.89-.78-2,0-2.86.45a1.14,1.14,0,0,1-1.53-.19,1.48,1.48,0,0,0-.26.34c-.25.62.74.49.74.49a6.61,6.61,0,0,1,3.22-.79c1.77.06.07,2.31.07,2.31l3.32,1.24.08-.14A3.12,3.12,0,0,0,38.46,46.72Z"/></g><g id="_Group_41" data-name="&lt;Group&gt;" class="cls-5"><path id="_Path_94" data-name="&lt;Path&gt;" class="cls-6" d="M33.64,44.59c2.08-1,4-3.13,6.23-1.86,1.55,1,1.46,3.5.73,5.26l.12.16a5.14,5.14,0,0,0-.06-5.09C39,40.25,34.89,43.3,33.64,44.59Z"/></g><g id="_Group_42" data-name="&lt;Group&gt;"><g id="_Group_43" data-name="&lt;Group&gt;"><path id="_Path_95" data-name="&lt;Path&gt;" class="cls-25" d="M35.47,50.48s-1-.32-2.59-.87A3.35,3.35,0,0,1,35.47,50.48Z"/><path id="_Path_96" data-name="&lt;Path&gt;" class="cls-25" d="M35.56,50.3a6.43,6.43,0,0,1-3,1.54A15.18,15.18,0,0,1,35.56,50.3Z"/></g><path id="_Path_97" data-name="&lt;Path&gt;" class="cls-26" d="M40.63,48.29c.1.08-1.24,1.36-1.33,1.43a4.38,4.38,0,0,1-3.5,1.06c-.28,0-.68-.08-.77-.4a.27.27,0,0,1,0-.12c0-.09.41-.28.5-.34s.4-.28.59-.43.74-.52.63-.78a1.37,1.37,0,0,1,1-1.92C38.59,46.6,40.63,48.29,40.63,48.29Z"/><path id="_Path_98" data-name="&lt;Path&gt;" class="cls-26" d="M36.75,48.71c.09.22-.52.72-1,1.09.58-.14,1.16-.29,1.3-.84s.23-1.75,1-1.58a2.91,2.91,0,0,1,2,1.61,6.12,6.12,0,0,0,.56-.7s-2-1.7-2.92-1.49A1.37,1.37,0,0,0,36.75,48.71Z"/><g id="_Group_44" data-name="&lt;Group&gt;" class="cls-5"><path id="_Path_99" data-name="&lt;Path&gt;" class="cls-6" d="M36.52,50.52a1.4,1.4,0,0,0,.47,0,2.47,2.47,0,0,0,.59-.15,4,4,0,0,0,1.08-.68c.11-.09.11-.27-.07-.21a13.45,13.45,0,0,1-1.67.77c-.15,0-.39.05-.45.22Z"/></g><g id="_Group_45" data-name="&lt;Group&gt;" class="cls-5"><path id="_Path_100" data-name="&lt;Path&gt;" class="cls-6" d="M39.65,49.09s-.35.54-.57.27S39.65,48.77,39.65,49.09Z"/></g></g></g><path id="_Path_101" data-name="&lt;Path&gt;" class="cls-12" d="M32.49,50.66a7.21,7.21,0,0,1,4.35-.73c2.53.36,5,.73,5,.73a22.36,22.36,0,0,1-4.7,0A11.57,11.57,0,0,0,32.49,50.66Z"/><path id="_Path_102" data-name="&lt;Path&gt;" class="cls-19" d="M30.73,45.71a2.08,2.08,0,0,1,.71-.48,4.28,4.28,0,0,1,.8-.35c.28-.09.58-.1.86-.21a1.21,1.21,0,0,1,.69-.18,1.26,1.26,0,0,1,.22.09,4.89,4.89,0,0,0,2.15,0c1.41-.11,1.84-.35,2,0s-.81.58-1,.64-.51.22-.76.3a2.42,2.42,0,0,1-1,0,2.94,2.94,0,0,0-.78-.09.64.64,0,0,0-.59.44.15.15,0,0,0,0,.09s.08.07.13.09a.34.34,0,0,1,.08.48.65.65,0,0,1-.48.24C33.08,46.89,29.79,47.28,30.73,45.71Z"/><ellipse id="_Path_103" data-name="&lt;Path&gt;" class="cls-13" cx="32.86" cy="45.25" rx="0.94" ry="0.36"/><path id="_Path_104" data-name="&lt;Path&gt;" class="cls-13" d="M33.33,44.84a.16.16,0,0,1,0-.1.29.29,0,0,1,.25-.13,2.93,2.93,0,0,1,.81.21,1.7,1.7,0,0,0,.34,0,8.26,8.26,0,0,0,1.8-.18c.24-.05.48-.11.73-.14s.33-.06.4,0,.5.15-.45.28a9.75,9.75,0,0,1-2,.16c-.42,0-.83,0-1.25-.06C33.87,45,33.36,45,33.33,44.84Z"/><path id="_Path_105" data-name="&lt;Path&gt;" class="cls-20" d="M47,50.33a7.94,7.94,0,0,1-3.95-1.21,8.11,8.11,0,0,0-3-.61c-.93-.07-1.49-.11-1.65-.5s.14-.63.23-.73c.28-.33.17-.5.13-.56-.34-.5-2.06-.77-4.42,0-1.93.66-2.7.26-3-.18-.46-.67-.07-1.68.52-2.38,1.18-1.41,3.69-1,3.79-1a.27.27,0,0,1-.09.53s-2.32-.37-3.3.8c-.54.64-.74,1.37-.49,1.74s1.15.4,2.4,0c2.27-.77,4.44-.7,5,.18a1,1,0,0,1-.17,1.2.76.76,0,0,0-.13.18,4.7,4.7,0,0,0,1.19.17,8.65,8.65,0,0,1,3.18.67,7.27,7.27,0,0,0,6,.89,11.72,11.72,0,0,1,3.65.1c1.05.14,2.14.28,2.38-.05.08-.11.15-.41-.24-1.23a6.06,6.06,0,0,0-3.63-3.13A4.45,4.45,0,0,1,49.6,44c-1-1.29-4.07-2.91-5.18-2.18a.27.27,0,1,1-.29-.45c1.47-1,4.81.92,5.89,2.3a4.11,4.11,0,0,0,1.67,1,6.59,6.59,0,0,1,3.9,3.39c.4.84.46,1.4.2,1.77-.43.59-1.51.45-2.88.27a11.34,11.34,0,0,0-3.48-.1A12.54,12.54,0,0,1,47,50.33Z"/><g id="_Group_46" data-name="&lt;Group&gt;"><path id="_Path_106" data-name="&lt;Path&gt;" class="cls-23" d="M38.81,50.16A66,66,0,0,0,46.45,47c.68-.36,2.11.13.88,1.16s-7.5,3.19-8.2,3.3A.66.66,0,0,1,38.81,50.16Z"/><path id="_Path_107" data-name="&lt;Path&gt;" class="cls-24" d="M47.77,47.24a5.36,5.36,0,0,1-.75.66c-2.67,1.68-5.57,2.38-8.4,3.43a.67.67,0,0,0,.5.12c.7-.12,7-2.27,8.2-3.3C47.78,47.77,47.87,47.46,47.77,47.24Z"/><g id="_Group_47" data-name="&lt;Group&gt;" class="cls-5"><path id="_Path_108" data-name="&lt;Path&gt;" class="cls-6" d="M42.26,49.24a12.91,12.91,0,0,0,5-2.33,1.34,1.34,0,0,0-.36,0,40.68,40.68,0,0,1-4.07,1.93C42.69,48.83,42.29,48.9,42.26,49.24Z"/></g><g id="_Group_48" data-name="&lt;Group&gt;" class="cls-5"><path id="_Path_109" data-name="&lt;Path&gt;" class="cls-6" d="M38.31,50.69v0a6.71,6.71,0,0,0,2.4-.89A9.37,9.37,0,0,0,38.31,50.69Z"/></g><path id="_Path_110" data-name="&lt;Path&gt;" class="cls-29" d="M38.6,50.26s1.15,0,.71.93c-.29.59-.81.09-.89-.06S38,50.66,38.6,50.26Z"/><path id="_Path_111" data-name="&lt;Path&gt;" class="cls-23" d="M38.69,50.49s.71,0,.44.57c-.18.36-.5.05-.55,0S38.35,50.73,38.69,50.49Z"/><g id="_Group_49" data-name="&lt;Group&gt;" class="cls-5"><path id="_Path_112" data-name="&lt;Path&gt;" class="cls-6" d="M38.78,50.71s.27,0,.16.21-.19,0-.2,0S38.65,50.81,38.78,50.71Z"/></g></g><g id="_Group_50" data-name="&lt;Group&gt;"><path id="_Path_113" data-name="&lt;Path&gt;" class="cls-21" d="M36.65,43.18l-.13.36s4,4.12,8.83,4.7l.5-.29A35,35,0,0,1,36.65,43.18Z"/><path id="_Path_114" data-name="&lt;Path&gt;" class="cls-22" d="M37,42.9s4.4,4.07,8.8,4.53c0,0,.13.46,0,.52a16.19,16.19,0,0,1-9.2-4.72S36.5,43.21,37,42.9Z"/><g id="_Group_51" data-name="&lt;Group&gt;" class="cls-5"><path id="_Path_115" data-name="&lt;Path&gt;" class="cls-6" d="M36.66,43.23a17.25,17.25,0,0,0,7.58,4.42,17.67,17.67,0,0,1-7.49-4.56C36.57,43.22,36.66,43.23,36.66,43.23Z"/></g></g><g id="_Group_52" data-name="&lt;Group&gt;"><g id="_Group_53" data-name="&lt;Group&gt;"><path id="_Path_116" data-name="&lt;Path&gt;" class="cls-15" d="M41.34,47.18s1.18-.29,1.38-.29.38.76.38.76L42,48.12Z"/><polygon id="_Path_117" data-name="&lt;Path&gt;" class="cls-16" points="42.01 48.12 41.97 48.31 41.89 48.71 41.34 48.12 41.34 47.18 42.01 48.12"/><polygon id="_Path_118" data-name="&lt;Path&gt;" class="cls-17" points="43.1 47.65 43.1 48.27 41.89 48.71 41.97 48.31 42.01 48.12 43.1 47.65"/></g><path id="_Path_119" data-name="&lt;Path&gt;" class="cls-18" d="M43.1,48.1v.17l-1.21.43-.55-.59v-.2a1.28,1.28,0,0,0,.34.26l.3.14a.71.71,0,0,0,.61,0A2,2,0,0,1,43.1,48.1Z"/><path id="_Path_120" data-name="&lt;Path&gt;" class="cls-17" d="M42.63,47.18s-.3-.21-.35,0S42.68,47.53,42.63,47.18Z"/></g><path id="_Compound_Path_4" data-name="&lt;Compound Path&gt;" class="cls-30" d="M43.64,50.91a.27.27,0,0,1-.24-.14c0-.09-1.2-2.29-.41-3.58a1.77,1.77,0,0,1,1.1-.78,6.13,6.13,0,0,1-2.49-.08c-.75-.22-1.37-.46-1.91-.67-1.26-.49-2-.79-3-.31a.27.27,0,0,1-.23-.48c1.22-.57,2.16-.21,3.46.3.53.21,1.14.44,1.87.65,2.35.68,6.81-1.21,8.19-1.92a5.92,5.92,0,0,1,4.21.18A3.42,3.42,0,0,1,56.28,46a1.31,1.31,0,0,1-.06,1.21c-.47.7-1.78.78-3.29.87a21.41,21.41,0,0,0-2.34.22A2.83,2.83,0,0,1,48,47.72a4.2,4.2,0,0,0-2.91-.88,1.74,1.74,0,0,0-1.62.63c-.63,1,.41,3,.42,3.05a.27.27,0,0,1-.24.39ZM45,46.3h.05a4.7,4.7,0,0,1,3.22,1,2.31,2.31,0,0,0,2.21.47,21.81,21.81,0,0,1,2.4-.23c1.31-.08,2.56-.15,2.88-.63a.82.82,0,0,0,0-.73A3,3,0,0,0,54,44.57a5.49,5.49,0,0,0-3.77-.2,24.31,24.31,0,0,1-5.51,1.94Z"/><path id="_Path_121" data-name="&lt;Path&gt;" class="cls-14" d="M52.18,49.13a.27.27,0,0,1-.05-.53,34.63,34.63,0,0,0,4.13-1.21A24,24,0,0,1,61.73,46c5-.48,6.49-1.74,6.5-1.75a.27.27,0,0,1,.35.4c-.06.06-1.64,1.38-6.8,1.88a23.63,23.63,0,0,0-5.35,1.37,35,35,0,0,1-4.19,1.23Z"/><path id="_Path_122" data-name="&lt;Path&gt;" class="cls-30" d="M44.73,48.51a5.28,5.28,0,0,1-3.61-1.25A1,1,0,0,1,40.87,46l.09-.14c.49-.8,1.11-1.8.94-2.44a.81.81,0,0,0-.44-.51c-.85-.46-4.58.91-6.74,1.89a.27.27,0,0,1-.22-.49c.6-.27,5.86-2.62,7.21-1.87a1.34,1.34,0,0,1,.69.84c.23.86-.43,1.92-1,2.86l-.09.14c-.1.17,0,.37.18.61a5.26,5.26,0,0,0,5.57.52c.68-.36,1.21-.69,1.68-1,1.5-.92,2.25-1.38,4-.64a.27.27,0,0,1-.2.49c-1.55-.64-2.06-.32-3.57.6-.47.29-1,.62-1.7,1A5.49,5.49,0,0,1,44.73,48.51Z"/><g id="_Group_54" data-name="&lt;Group&gt;"><g id="_Group_55" data-name="&lt;Group&gt;"><path id="_Path_123" data-name="&lt;Path&gt;" class="cls-15" d="M46.54,45.92s.15-1.2.23-1.4.85-.08.85-.08l0,1.19Z"/><polygon id="_Path_124" data-name="&lt;Path&gt;" class="cls-16" points="47.66 45.63 47.83 45.74 48.16 45.96 47.42 46.26 46.54 45.92 47.66 45.63"/><polygon id="_Path_125" data-name="&lt;Path&gt;" class="cls-17" points="47.62 44.45 48.2 44.67 48.16 45.96 47.83 45.74 47.66 45.63 47.62 44.45"/></g><path id="_Path_126" data-name="&lt;Path&gt;" class="cls-18" d="M48,44.61l.16.06,0,1.29-.75.3-.18-.07a1.28,1.28,0,0,0,.36-.22c.08-.08.17-.15.23-.23a.71.71,0,0,0,.18-.58A2,2,0,0,1,48,44.61Z"/><path id="_Path_127" data-name="&lt;Path&gt;" class="cls-17" d="M47,44.71s-.31.21-.13.32S47.36,44.8,47,44.71Z"/></g><path id="_Compound_Path_5" data-name="&lt;Compound Path&gt;" class="cls-30" d="M33.48,52.18h-.21A3.79,3.79,0,0,1,31,51.31c-.24-.17-.5-.36-.88-.59a3,3,0,0,0-1.38-.46c-.42,0-.82-.09-1-.76a.61.61,0,0,1,.11-.57c.5-.64,2.47-.62,2.86-.6a.27.27,0,0,1,.26.27.27.27,0,0,1-.27.26c-.83,0-2.17.08-2.42.4a.09.09,0,0,0,0,.09c.09.32.17.33.56.37a3.54,3.54,0,0,1,1.6.53c.39.24.68.45.91.61a3.26,3.26,0,0,0,2,.76h.16a5.18,5.18,0,0,0-.32-.47c-.37-.5-.8-1.07-.7-1.6a.86.86,0,0,1,.41-.58,6,6,0,0,0,.58-.43c.57-.47.69-.43,2.15.07l.3.1c1.06.37,2.83-1.13,4.39-2.45s3-2.49,4-2.33,1.13,0,1.37-.42a3.42,3.42,0,0,1,1-1.18A4.22,4.22,0,0,0,45,42.24,11.48,11.48,0,0,0,40,43.83a.27.27,0,0,1-.3-.44,11.79,11.79,0,0,1,5.19-1.68,4.41,4.41,0,0,1,2.15.26,5,5,0,0,0,.5-.67c.5-.77.91-1.17,2.32-.27,1.16.75,1.74,1.69,1.48,2.4-.2.53-.83.78-1.69.66a3.23,3.23,0,0,1-1.76-.92,5.11,5.11,0,0,0-.74-.56l-.2.17a2.91,2.91,0,0,0-.87,1c-.35.64-.64.89-1.92.69-.8-.13-2.21,1.06-3.57,2.21-1.53,1.3-3.11,2.63-4.39,2.63a1.59,1.59,0,0,1-.52-.08l-.3-.1c-1.3-.45-1.3-.45-1.64-.17a6.49,6.49,0,0,1-.63.47.34.34,0,0,0-.17.23c-.05.31.33.82.6,1.19s.59.79.42,1.09A.56.56,0,0,1,33.48,52.18Zm14.1-10a6.15,6.15,0,0,1,.7.54,2.72,2.72,0,0,0,1.49.79c.59.08,1,0,1.12-.32s-.25-1.11-1.27-1.76S48.44,41,48,41.58A6,6,0,0,1,47.58,42.22Z"/><path id="_Compound_Path_6" data-name="&lt;Compound Path&gt;" class="cls-30" d="M69.19,50.37A2,2,0,0,1,68,49.92a3.23,3.23,0,0,1-1.12-1.64,5.11,5.11,0,0,0-.39-.84l-.26.05A2.91,2.91,0,0,0,65,48c-.61.39-1,.48-2-.3-.65-.49-2.45-.11-4.19.26-2.24.48-4.56,1-5.53-.08l-.22-.23c-.93-1-.93-1-1.37-.92a6.51,6.51,0,0,1-.77.12.33.33,0,0,0-.26.12c-.19.25-.1.87,0,1.33s.15,1-.14,1.16-.53,0-.75-.15a3.79,3.79,0,0,1-1.62-1.84c-.13-.26-.27-.56-.49-.94a3,3,0,0,0-1-1.06,1,1,0,0,1-.53-1.14.61.61,0,0,1,.36-.45c.75-.33,2.46.62,2.8.82a.27.27,0,0,1-.27.46c-.72-.41-2-1-2.32-.79a.09.09,0,0,0-.06.07c-.07.32,0,.37.31.59a3.54,3.54,0,0,1,1.15,1.23c.23.39.39.71.51,1A3.26,3.26,0,0,0,50,48.84l.13.08a5.2,5.2,0,0,0-.07-.57,2.38,2.38,0,0,1,.14-1.74.86.86,0,0,1,.63-.32,6,6,0,0,0,.72-.11c.73-.15.82-.05,1.86,1.08l.22.23c.76.82,3,.34,5-.08s3.78-.8,4.62-.16,1,.55,1.41.28A3.42,3.42,0,0,1,66.16,47a4.22,4.22,0,0,0-1.41-.9c-2.67-1.14-7.5.52-7.55.54a.27.27,0,1,1-.18-.5c.21-.07,5.08-1.75,7.94-.52a4.41,4.41,0,0,1,1.78,1.24,5,5,0,0,0,.75-.36c.81-.44,1.35-.61,2.17.86.67,1.21.74,2.31.17,2.81A1,1,0,0,1,69.19,50.37ZM67,47.27a6.16,6.16,0,0,1,.36.81,2.72,2.72,0,0,0,.94,1.4c.48.35.91.45,1.13.25s.31-1.1-.28-2.15-.8-1-1.45-.66A6,6,0,0,1,67,47.27Z"/><g id="_Group_56" data-name="&lt;Group&gt;"><g id="_Group_57" data-name="&lt;Group&gt;"><path id="_Path_128" data-name="&lt;Path&gt;" class="cls-15" d="M52.47,45.17s1.21,0,1.41,0,.2.83.2.83l-1.17.21Z"/><polygon id="_Path_129" data-name="&lt;Path&gt;" class="cls-16" points="52.92 46.24 52.84 46.42 52.67 46.78 52.26 46.09 52.47 45.17 52.92 46.24"/><polygon id="_Path_130" data-name="&lt;Path&gt;" class="cls-17" points="54.09 46.02 53.95 46.63 52.67 46.78 52.84 46.42 52.92 46.24 54.09 46.02"/></g><path id="_Path_131" data-name="&lt;Path&gt;" class="cls-18" d="M54,46.47l0,.16-1.28.15-.41-.69,0-.19a1.28,1.28,0,0,0,.27.32l.26.2a.71.71,0,0,0,.6.09A2,2,0,0,1,54,46.47Z"/><path id="_Path_132" data-name="&lt;Path&gt;" class="cls-17" d="M53.74,45.46s-.25-.28-.34-.08S53.7,45.82,53.74,45.46Z"/></g><path id="_Path_133" data-name="&lt;Path&gt;" class="cls-14" d="M47.18,53.65a21.35,21.35,0,0,1-7.58-1.53,12,12,0,0,0-3.21-.63c-2.4-.27-5.12-.57-7.18-2.64-.84-.84-1.14-1.53-.93-2.11.41-1.13,2.66-1.32,4.83-1.51.51,0,1-.08,1.41-.14A16.28,16.28,0,0,1,36.74,45a7,7,0,0,0,3.13-.66A12.54,12.54,0,0,0,42,43.23a11.31,11.31,0,0,1,4.82-1.63c2.76-.44,3.43.78,4,1.85.4.73.74,1.36,1.68,1.58s1.55-.26,2.26-1a6.64,6.64,0,0,1,4.3-2.4,4.53,4.53,0,0,1,3.72.7A3.26,3.26,0,0,1,64,44.55a.27.27,0,0,1-.26.27.26.26,0,0,1-.27-.26,2.77,2.77,0,0,0-.93-1.86,4,4,0,0,0-3.29-.58,6.18,6.18,0,0,0-4,2.24c-.75.81-1.4,1.5-2.78,1.19a3.06,3.06,0,0,1-2-1.84c-.58-1.06-1.08-2-3.47-1.58a10.75,10.75,0,0,0-4.63,1.57,13.15,13.15,0,0,1-2.25,1.12,7.47,7.47,0,0,1-3.32.69,15.8,15.8,0,0,0-2.16.13c-.43.05-.92.09-1.43.14-1.72.15-4.08.35-4.37,1.16-.13.35.15.89.81,1.55,1.92,1.93,4.54,2.23,6.86,2.49a12.35,12.35,0,0,1,3.36.67C42.24,52.68,46.49,53.47,49,53a.27.27,0,1,1,.11.52A9.55,9.55,0,0,1,47.18,53.65Z"/><g id="_Group_58" data-name="&lt;Group&gt;"><path id="_Path_134" data-name="&lt;Path&gt;" class="cls-23" d="M51.35,51.85A34.86,34.86,0,0,0,49,45.63c-.36-.68.14-2.11,1.16-.87s2.35,6.09,2.46,6.78A.66.66,0,0,1,51.35,51.85Z"/><g id="_Group_59" data-name="&lt;Group&gt;" class="cls-5"><path id="_Path_135" data-name="&lt;Path&gt;" class="cls-6" d="M50.69,48.5c-.31-1.9-.73-2.16-1.75-3.7a1.33,1.33,0,0,0,0,.36,14.93,14.93,0,0,1,1.33,2.38C50.26,47.7,50.35,48.48,50.69,48.5Z"/></g><g id="_Group_60" data-name="&lt;Group&gt;" class="cls-5"><path id="_Path_136" data-name="&lt;Path&gt;" class="cls-6" d="M51.88,52.35h0a6.71,6.71,0,0,0-.88-2.4A9.37,9.37,0,0,0,51.88,52.35Z"/></g><path id="_Path_137" data-name="&lt;Path&gt;" class="cls-29" d="M51.45,52.06s0-1.15.93-.71c.59.29.08.81-.07.89S51.85,52.62,51.45,52.06Z"/><path id="_Path_138" data-name="&lt;Path&gt;" class="cls-23" d="M51.68,52s0-.71.57-.44c.36.18.05.5,0,.55S51.92,52.32,51.68,52Z"/><g id="_Group_61" data-name="&lt;Group&gt;" class="cls-5"><path id="_Path_139" data-name="&lt;Path&gt;" class="cls-6" d="M51.9,51.89s0-.27.21-.16,0,.19,0,.2S52,52,51.9,51.89Z"/></g></g><g id="_Group_62" data-name="&lt;Group&gt;"><path id="_Path_140" data-name="&lt;Path&gt;" class="cls-23" d="M42.6,42.62a66.05,66.05,0,0,0,8.22.93c.77,0,1.78,1.13.2,1.44s-8.11-.85-8.77-1.08A.66.66,0,0,1,42.6,42.62Z"/><path id="_Path_141" data-name="&lt;Path&gt;" class="cls-24" d="M44.36,43.91a8,8,0,0,1-2.57-.72.72.72,0,0,0,.45.71c.67.24,7.2,1.39,8.77,1.08.76-.15.92-.48.79-.79-1.76.66-4.2.26-6-.12C45.29,44,44.85,44,44.36,43.91Z"/><g id="_Group_63" data-name="&lt;Group&gt;" class="cls-5"><path id="_Path_142" data-name="&lt;Path&gt;" class="cls-6" d="M46.07,43.48a12.91,12.91,0,0,0,5.51.39,1.34,1.34,0,0,0-.3-.2,40.68,40.68,0,0,1-4.49-.28C46.64,43.34,46.26,43.2,46.07,43.48Z"/></g><g id="_Group_64" data-name="&lt;Group&gt;" class="cls-5"><path id="_Path_143" data-name="&lt;Path&gt;" class="cls-6" d="M41.91,42.84v0a6.71,6.71,0,0,0,2.53.39A9.37,9.37,0,0,0,41.91,42.84Z"/></g></g><g id="_Group_65" data-name="&lt;Group&gt;"><path id="_Path_144" data-name="&lt;Path&gt;" class="cls-25" d="M48.2,51.58s.28,1-.37.8-6-4.6-3-7A5.17,5.17,0,0,1,50,44.63l-.73,3.47s-2.48-1.35-2.28.41A6.61,6.61,0,0,0,48.2,51.58Z"/><path id="_Path_145" data-name="&lt;Path&gt;" class="cls-26" d="M48.24,47.7A4.17,4.17,0,0,1,48,44.41a1.17,1.17,0,0,0,0-.17,5,5,0,0,0-1.9.34c.14.74.16,1.55.29,2.22A2.77,2.77,0,0,0,47,48.06C47.1,47.52,47.7,47.54,48.24,47.7Z"/><g id="_Group_66" data-name="&lt;Group&gt;" class="cls-5"><path id="_Path_146" data-name="&lt;Path&gt;" class="cls-6" d="M47.27,44.63c-.41-.65-.67.56-.71,1a6.27,6.27,0,0,0,.58,2.11,1.06,1.06,0,0,1,.91-.11C47.47,46.75,47.75,45.51,47.27,44.63Z"/></g><path id="_Path_147" data-name="&lt;Path&gt;" class="cls-26" d="M47.13,49.43A5.68,5.68,0,0,1,47,48.6l-.16-.09A32.51,32.51,0,0,0,44.24,46,2.27,2.27,0,0,0,44,47.83l.27.05C45.31,48.29,46.07,49.25,47.13,49.43Z"/><g id="_Group_67" data-name="&lt;Group&gt;" class="cls-5"><path id="_Path_148" data-name="&lt;Path&gt;" class="cls-6" d="M44.33,47.49A8.59,8.59,0,0,0,47.1,49.3c0-.17-.08-.35-.11-.53-.92-.57-1.43-1.55-2.41-2C44.22,46.64,44.07,47.22,44.33,47.49Z"/></g><path id="_Path_149" data-name="&lt;Path&gt;" class="cls-26" d="M47.83,51a7.1,7.1,0,0,1-.43-.85,2.84,2.84,0,0,0-1.76.27l-.06,0a12.35,12.35,0,0,0,.89.9A2.24,2.24,0,0,0,47.83,51Z"/><g id="_Group_68" data-name="&lt;Group&gt;" class="cls-5"><path id="_Path_150" data-name="&lt;Path&gt;" class="cls-6" d="M46.32,51.06a2.79,2.79,0,0,0,1.44-.16c-.09-.16-.19-.34-.28-.55-.34,0-.69,0-1,0C46,50.38,45.93,51,46.32,51.06Z"/></g><path id="_Path_151" data-name="&lt;Path&gt;" class="cls-26" d="M48.2,51.58s1.15,0,1.24.26-.57,1.81-1,1.82-.6-1.28-.6-1.28Z"/><path id="_Path_152" data-name="&lt;Path&gt;" class="cls-27" d="M47.85,52.52a1.89,1.89,0,0,0,.89.55c-.29-.26-.54-.55-.86-.8l-.05.11Z"/><path id="_Path_153" data-name="&lt;Path&gt;" class="cls-27" d="M48.87,52.65A3.16,3.16,0,0,0,48,52L48,52C48.23,52.36,48.45,52.72,48.87,52.65Z"/><path id="_Path_154" data-name="&lt;Path&gt;" class="cls-27" d="M49.28,52.19a9.28,9.28,0,0,0-1.19-.37l0,.07A1.46,1.46,0,0,0,49.28,52.19Z"/><path id="_Path_155" data-name="&lt;Path&gt;" class="cls-26" d="M48.43,53.67a.35.35,0,0,0,.2-.1,1.42,1.42,0,0,1-.5-.92c0-.74.69-.76,1.3-.58a.46.46,0,0,0,0-.22c-.09-.23-1.24-.26-1.24-.26l-.37.8S48,53.68,48.43,53.67Z"/><g id="_Group_69" data-name="&lt;Group&gt;" class="cls-7"><path id="_Path_156" data-name="&lt;Path&gt;" class="cls-25" d="M48.72,47c-.15,0-.14.2-.3.19a1.66,1.66,0,0,0-1.88.67c-.64,1,.32,1.94.87,2.77a1.14,1.14,0,0,1,0,1.54,1.48,1.48,0,0,0,.38.2c.65.15.37-.8.37-.8a6.61,6.61,0,0,1-1.26-3.07c-.2-1.76,2.28-.41,2.28-.41L50,44.63l-.15-.06A3.12,3.12,0,0,0,48.72,47Z"/></g><g id="_Group_70" data-name="&lt;Group&gt;" class="cls-5"><path id="_Path_157" data-name="&lt;Path&gt;" class="cls-6" d="M47.33,52.09c-1.3-1.91-3.69-3.54-2.76-5.88.73-1.68,3.25-2,5.1-1.5l.15-.14a5.14,5.14,0,0,0-5,.81C42.24,47.45,45.87,51,47.33,52.09Z"/></g><g id="_Group_71" data-name="&lt;Group&gt;"><g id="_Group_72" data-name="&lt;Group&gt;"><path id="_Path_158" data-name="&lt;Path&gt;" class="cls-25" d="M52.88,49.41s-.17,1-.47,2.69A3.35,3.35,0,0,1,52.88,49.41Z"/><path id="_Path_159" data-name="&lt;Path&gt;" class="cls-25" d="M52.69,49.35a6.43,6.43,0,0,1,2,2.75A15.18,15.18,0,0,1,52.69,49.35Z"/></g><path id="_Path_160" data-name="&lt;Path&gt;" class="cls-26" d="M50,44.63a9,9,0,0,1,1.61,1.1A4.38,4.38,0,0,1,53.13,49c0,.28,0,.69-.28.82a.27.27,0,0,1-.11,0c-.09,0-.34-.37-.41-.45s-.34-.35-.52-.52-.62-.65-.86-.51a1.37,1.37,0,0,1-2-.67C48.58,46.9,50,44.63,50,44.63Z"/><path id="_Path_161" data-name="&lt;Path&gt;" class="cls-26" d="M50.95,48.41c.2-.12.78.41,1.24.88-.22-.56-.46-1.11-1-1.16s-1.76,0-1.72-.8a2.91,2.91,0,0,1,1.3-2.24,6.13,6.13,0,0,0-.78-.45s-1.38,2.27-1,3.1A1.37,1.37,0,0,0,50.95,48.41Z"/><g id="_Group_73" data-name="&lt;Group&gt;" class="cls-5"><path id="_Path_162" data-name="&lt;Path&gt;" class="cls-6" d="M52.77,48.36a1.4,1.4,0,0,0,0-.47,2.47,2.47,0,0,0-.24-.56,4,4,0,0,0-.83-1c-.11-.1-.28-.07-.19.1a13.44,13.44,0,0,1,1,1.54c.05.14.11.37.28.42Z"/></g><g id="_Group_74" data-name="&lt;Group&gt;" class="cls-5"><path id="_Path_163" data-name="&lt;Path&gt;" class="cls-6" d="M50.89,45.48s.59.27.35.53S50.58,45.53,50.89,45.48Z"/></g></g></g><g id="_Group_75" data-name="&lt;Group&gt;"><path id="_Path_164" data-name="&lt;Path&gt;" class="cls-23" d="M56.43,51.5a66,66,0,0,0,8.06-1.87c.73-.24,2.06.47.67,1.29s-7.92,1.91-8.63,1.91A.66.66,0,0,1,56.43,51.5Z"/><path id="_Path_165" data-name="&lt;Path&gt;" class="cls-24" d="M58.53,52.13a8,8,0,0,1-2.66.18.72.72,0,0,0,.67.52c.71,0,7.25-1.1,8.63-1.91.66-.39.7-.76.48-1-1.44,1.21-3.87,1.65-5.74,1.9C59.42,51.88,59,52,58.53,52.13Z"/><g id="_Group_76" data-name="&lt;Group&gt;" class="cls-5"><path id="_Path_166" data-name="&lt;Path&gt;" class="cls-6" d="M60,51.15a12.91,12.91,0,0,0,5.33-1.47,1.33,1.33,0,0,0-.35-.09,40.69,40.69,0,0,1-4.33,1.24C60.48,50.83,60.07,50.83,60,51.15Z"/></g><g id="_Group_77" data-name="&lt;Group&gt;" class="cls-5"><path id="_Path_167" data-name="&lt;Path&gt;" class="cls-6" d="M55.86,51.94v0a6.71,6.71,0,0,0,2.51-.48A9.37,9.37,0,0,0,55.86,51.94Z"/></g></g><g id="_Group_78" data-name="&lt;Group&gt;"><path id="_Path_168" data-name="&lt;Path&gt;" class="cls-23" d="M68.77,48.42a34.86,34.86,0,0,0-6.15-2.54c-.74-.2-1.45-1.53.15-1.44s6.06,2.43,6.64,2.82S69.69,48.82,68.77,48.42Z"/><g id="_Group_79" data-name="&lt;Group&gt;" class="cls-5"><path id="_Path_169" data-name="&lt;Path&gt;" class="cls-6" d="M65.87,46.63c-1.6-1.07-2.08-.94-3.9-1.24a1.33,1.33,0,0,0,.24.27,14.93,14.93,0,0,1,2.65.65C65,46.39,65.62,46.85,65.87,46.63Z"/></g><g id="_Group_80" data-name="&lt;Group&gt;" class="cls-5"><path id="_Path_170" data-name="&lt;Path&gt;" class="cls-6" d="M69.5,48.37h0a6.71,6.71,0,0,0-2.35-1A9.37,9.37,0,0,0,69.5,48.37Z"/></g><path id="_Path_171" data-name="&lt;Path&gt;" class="cls-29" d="M69,48.49s-.83-.81.12-1.16c.61-.23.65.49.6.65S69.67,48.58,69,48.49Z"/><path id="_Path_172" data-name="&lt;Path&gt;" class="cls-23" d="M69.08,48.27s-.51-.5.07-.72c.38-.14.4.3.37.4S69.5,48.32,69.08,48.27Z"/><g id="_Group_81" data-name="&lt;Group&gt;" class="cls-5"><path id="_Path_173" data-name="&lt;Path&gt;" class="cls-6" d="M69.17,48s-.19-.19,0-.27.15.11.14.15S69.33,48.06,69.17,48Z"/></g></g><g id="_Group_82" data-name="&lt;Group&gt;"><g id="_Group_83" data-name="&lt;Group&gt;"><path id="_Path_174" data-name="&lt;Path&gt;" class="cls-15" d="M47.48,49.26s.15-1.2.23-1.4.85-.08.85-.08l0,1.19Z"/><polygon id="_Path_175" data-name="&lt;Path&gt;" class="cls-16" points="48.6 48.97 48.77 49.08 49.1 49.29 48.36 49.6 47.48 49.26 48.6 48.97"/><polygon id="_Path_176" data-name="&lt;Path&gt;" class="cls-17" points="48.56 47.78 49.14 48.01 49.1 49.29 48.77 49.08 48.6 48.97 48.56 47.78"/></g><path id="_Path_177" data-name="&lt;Path&gt;" class="cls-18" d="M49,47.95l.16.06,0,1.29-.75.3-.18-.07a1.28,1.28,0,0,0,.36-.22c.08-.08.17-.15.23-.23a.71.71,0,0,0,.18-.58A2,2,0,0,1,49,47.95Z"/><path id="_Path_178" data-name="&lt;Path&gt;" class="cls-17" d="M48,48s-.31.21-.13.32S48.3,48.13,48,48Z"/></g><path id="_Path_179" data-name="&lt;Path&gt;" class="cls-14" d="M33.43,51.63a3.63,3.63,0,0,1-1.88-.48c-1.68-1-2.48-1.91-2.44-2.82s.72-1.5,2-2.1a.27.27,0,0,1,.22.48c-.77.35-1.69.92-1.73,1.64s.72,1.48,2.17,2.33,3.14.26,5.32-.46c2.44-.81,5.48-1.81,9-.91a11.91,11.91,0,0,0,4.71.31.27.27,0,0,1,.07.53A12.41,12.41,0,0,1,46,49.83c-3.39-.86-6.22.08-8.72.9A13.19,13.19,0,0,1,33.43,51.63Z"/><g id="_Group_84" data-name="&lt;Group&gt;"><g id="_Group_85" data-name="&lt;Group&gt;"><path id="_Path_180" data-name="&lt;Path&gt;" class="cls-15" d="M59.5,52.53s.35-1.16.46-1.34.85.07.85.07l-.16,1.18Z"/><polygon id="_Path_181" data-name="&lt;Path&gt;" class="cls-16" points="60.65 52.43 60.79 52.57 61.09 52.84 60.3 53.01 59.5 52.53 60.65 52.43"/><polygon id="_Path_182" data-name="&lt;Path&gt;" class="cls-17" points="60.8 51.26 61.34 51.57 61.09 52.84 60.79 52.57 60.65 52.43 60.8 51.26"/></g><path id="_Path_183" data-name="&lt;Path&gt;" class="cls-18" d="M61.19,51.49l.14.09-.25,1.26L60.3,53l-.17-.1a1.28,1.28,0,0,0,.39-.16l.27-.18a.71.71,0,0,0,.27-.54A2,2,0,0,1,61.19,51.49Z"/><path id="_Path_184" data-name="&lt;Path&gt;" class="cls-17" d="M60.16,51.41s-.34.15-.18.3S60.49,51.56,60.16,51.41Z"/></g><path id="_Path_185" data-name="&lt;Path&gt;" class="cls-30" d="M50.69,54.2a87.56,87.56,0,0,1-9.37-.47A6.79,6.79,0,0,1,38.88,53,14.38,14.38,0,0,0,36.57,52c-2.78-.89-5.23-6.47-5.33-6.71a.27.27,0,0,1,.49-.21c0,.06,2.46,5.6,5,6.41a14.85,14.85,0,0,1,2.38,1,6.28,6.28,0,0,0,2.28.73,81.25,81.25,0,0,0,12.53.34c.75-.09,4.59-.69,8.38-1.53,6.45-1.42,7.12-2.3,7.17-2.54l0-.1c.23-1,.46-2.13-.11-2.93a4,4,0,0,0-2.9-1.24c-2.36-.29-3.08-1-3.65-1.55a2.53,2.53,0,0,0-2-.87,28.46,28.46,0,0,0-4.24.28c-2.36.26-4.39.49-5.21,0a.27.27,0,0,1,.28-.45c.66.41,2.8.18,4.87-.05a28.82,28.82,0,0,1,4.33-.28,3,3,0,0,1,2.32,1c.54.53,1.16,1.13,3.34,1.4,1.64.2,2.71.68,3.27,1.46.71,1,.43,2.25.19,3.35l0,.1c-.08.37-.29,1.34-7.58,2.94-3.57.79-7.43,1.41-8.43,1.53A30.3,30.3,0,0,1,50.69,54.2Z"/><g id="_Group_86" data-name="&lt;Group&gt;"><g id="_Group_87" data-name="&lt;Group&gt;"><path id="_Path_186" data-name="&lt;Path&gt;" class="cls-15" d="M40.69,52.42s-.25-1.19-.25-1.39.78-.35.78-.35l.43,1.11Z"/><polygon id="_Path_187" data-name="&lt;Path&gt;" class="cls-16" points="41.65 51.78 41.84 51.83 42.23 51.92 41.63 52.45 40.69 52.42 41.65 51.78"/><polygon id="_Path_188" data-name="&lt;Path&gt;" class="cls-17" points="41.22 50.67 41.84 50.7 42.23 51.92 41.84 51.83 41.65 51.78 41.22 50.67"/></g><path id="_Path_189" data-name="&lt;Path&gt;" class="cls-18" d="M41.67,50.69h.17l.39,1.22-.6.53h-.2a1.28,1.28,0,0,0,.27-.33c.05-.11.11-.2.15-.29a.71.71,0,0,0,0-.61A2,2,0,0,1,41.67,50.69Z"/><path id="_Path_190" data-name="&lt;Path&gt;" class="cls-17" d="M40.73,51.12s-.22.3,0,.35S41.09,51.09,40.73,51.12Z"/></g><g id="_Group_88" data-name="&lt;Group&gt;"><g id="_Group_89" data-name="&lt;Group&gt;"><path id="_Path_191" data-name="&lt;Path&gt;" class="cls-15" d="M63.69,49.39s-1.17.33-1.37.34-.4-.75-.4-.75l1.07-.5Z"/><polygon id="_Path_192" data-name="&lt;Path&gt;" class="cls-16" points="62.99 48.48 63.02 48.28 63.09 47.89 63.66 48.45 63.69 49.39 62.99 48.48"/><polygon id="_Path_193" data-name="&lt;Path&gt;" class="cls-17" points="61.92 48.98 61.9 48.36 63.09 47.89 63.02 48.28 62.99 48.48 61.92 48.98"/></g><path id="_Path_194" data-name="&lt;Path&gt;" class="cls-18" d="M61.9,48.53v-.17l1.2-.47.57.57v.2a1.28,1.28,0,0,0-.34-.24l-.3-.13a.71.71,0,0,0-.61.06A2,2,0,0,1,61.9,48.53Z"/><path id="_Path_195" data-name="&lt;Path&gt;" class="cls-17" d="M62.4,49.43s.31.2.35,0S62.34,49.08,62.4,49.43Z"/></g><g id="_Group_90" data-name="&lt;Group&gt;"><g id="_Group_91" data-name="&lt;Group&gt;"><path id="_Path_196" data-name="&lt;Path&gt;" class="cls-15" d="M58.86,49s-.86.86-1,1-.72-.46-.72-.46l.69-1Z"/><polygon id="_Path_197" data-name="&lt;Path&gt;" class="cls-16" points="57.8 48.58 57.73 48.39 57.6 48.01 58.37 48.23 58.86 49.03 57.8 48.58"/><polygon id="_Path_198" data-name="&lt;Path&gt;" class="cls-17" points="57.11 49.54 56.79 49.01 57.6 48.01 57.73 48.39 57.8 48.58 57.11 49.54"/></g><path id="_Path_199" data-name="&lt;Path&gt;" class="cls-18" d="M56.87,49.15,56.79,49l.81-1,.78.22.1.17a1.28,1.28,0,0,0-.42,0l-.32,0a.71.71,0,0,0-.5.35A2,2,0,0,1,56.87,49.15Z"/><path id="_Path_200" data-name="&lt;Path&gt;" class="cls-17" d="M57.75,49.7s.37,0,.3-.18S57.53,49.43,57.75,49.7Z"/></g><g id="_Group_92" data-name="&lt;Group&gt;"><g id="_Group_93" data-name="&lt;Group&gt;"><path id="_Path_201" data-name="&lt;Path&gt;" class="cls-15" d="M48.64,52.37s1-.75,1.14-.84.66.54.66.54l-.8.88Z"/><polygon id="_Path_202" data-name="&lt;Path&gt;" class="cls-16" points="49.63 52.95 49.68 53.14 49.77 53.53 49.02 53.22 48.64 52.37 49.63 52.95"/><polygon id="_Path_203" data-name="&lt;Path&gt;" class="cls-17" points="50.44 52.07 50.69 52.63 49.77 53.53 49.68 53.14 49.63 52.95 50.44 52.07"/></g><path id="_Path_204" data-name="&lt;Path&gt;" class="cls-18" d="M50.62,52.48l.07.15-.92.89L49,53.22,48.94,53a1.28,1.28,0,0,0,.41.09h.33a.71.71,0,0,0,.54-.29A2,2,0,0,1,50.62,52.48Z"/><path id="_Path_205" data-name="&lt;Path&gt;" class="cls-17" d="M49.82,51.83s-.37-.07-.32.14S50,52.14,49.82,51.83Z"/></g><path id="_Path_206" data-name="&lt;Path&gt;" class="cls-11" d="M55.89,53.28s3.55-1.12,4.22-.92.82-.69,1.41-.59a6.72,6.72,0,0,0,2.3-.32,4.59,4.59,0,0,1,2.5-.13c.8.28,1.26,0,.12.45a12.73,12.73,0,0,1-3.45.8,7.79,7.79,0,0,0-1.91.26C60.53,53,56.65,54.15,55.89,53.28Z"/><path id="_Path_207" data-name="&lt;Path&gt;" class="cls-13" d="M57.07,53.36a13.82,13.82,0,0,0,4-.52A7.79,7.79,0,0,1,63,52.58a12.57,12.57,0,0,0,3.39-.78.35.35,0,0,0,0-.11A85,85,0,0,1,57.07,53.36Z"/><path id="_Path_208" data-name="&lt;Path&gt;" class="cls-30" d="M50.84,53.06A5.35,5.35,0,0,1,48,52a7.27,7.27,0,0,0-1.35-.7c-1.4-.49-3.67.46-3.69.47a.27.27,0,0,1-.21-.49c.1,0,2.48-1,4.08-.49a7.78,7.78,0,0,1,1.46.75,4.21,4.21,0,0,0,3.24.88,13.72,13.72,0,0,0,1.79-.5,9.6,9.6,0,0,1,3.82-.59c.68,0,1.33.07,1.95.11,2.09.16,3.3.2,3.67-.71a.77.77,0,0,0-.07-.82,3.61,3.61,0,0,0-3-.71.27.27,0,1,1-.07-.53c1.25-.17,2.85.09,3.48.91A1.29,1.29,0,0,1,63.24,51c-.54,1.31-2.16,1.19-4.2,1-.62,0-1.25-.09-1.92-.11a9.08,9.08,0,0,0-3.64.56,14.18,14.18,0,0,1-1.85.51A4,4,0,0,1,50.84,53.06Z"/><path id="_Path_209" data-name="&lt;Path&gt;" class="cls-30" d="M38.49,52.17a.27.27,0,0,1-.22-.42,2.23,2.23,0,0,0,.33-1.51,2.26,2.26,0,0,0-1-1.42A5.14,5.14,0,0,0,35.07,48c-1-.12-1.91-.23-1.89-1.59a1.58,1.58,0,0,1,1.13-1.53,4.09,4.09,0,0,1,4.09,1.22.27.27,0,1,1-.41.34,3.56,3.56,0,0,0-3.51-1.06,1,1,0,0,0-.78,1c0,.83.35.92,1.42,1a5.66,5.66,0,0,1,2.72.88,2.55,2.55,0,0,1,.85,3.68A.27.27,0,0,1,38.49,52.17Z"/><path id="_Path_210" data-name="&lt;Path&gt;" class="cls-14" d="M43.51,53h-.12a1.89,1.89,0,0,1-1.6-.84,1,1,0,0,0-.52-.43,2.36,2.36,0,0,0-1.54.23.27.27,0,0,1-.26-.47,2.87,2.87,0,0,1,1.94-.28,1.48,1.48,0,0,1,.79.62,1.37,1.37,0,0,0,1.22.64A9.48,9.48,0,0,0,45.71,52c2.25-.61,5.33-1.44,8.09-.66a21.35,21.35,0,0,0,12.44-.13,12.32,12.32,0,0,1,2.07-.45.27.27,0,0,1,0,.53,12.06,12.06,0,0,0-2,.43,21.82,21.82,0,0,1-12.72.12c-2.63-.74-5.62.07-7.81.66A11,11,0,0,1,43.51,53Z"/><path id="_Path_211" data-name="&lt;Path&gt;" class="cls-30" d="M29.67,51.26A.27.27,0,0,1,29.4,51c0-.08,0-2,3.68-2.78.68-.14,1.47-.28,2.31-.43,3.17-.57,8-1.43,8.29-2.76a.27.27,0,1,1,.52.13c-.4,1.54-4,2.31-8.72,3.15-.84.15-1.63.29-2.3.43-3.28.68-3.26,2.22-3.26,2.23a.27.27,0,0,1-.26.28Z"/><path id="_Path_212" data-name="&lt;Path&gt;" class="cls-30" d="M55,53.73a8.77,8.77,0,0,1-4.76-1.44.27.27,0,0,1,.31-.43h0a8.16,8.16,0,0,0,7.14.84c2-.75,2-1.4,2-2s.17-1.2,1.71-1.42a.27.27,0,1,1,.08.53c-1.23.18-1.24.44-1.26.92,0,.83-.24,1.64-2.37,2.45A8.05,8.05,0,0,1,55,53.73Z"/><path id="_Path_213" data-name="&lt;Path&gt;" class="cls-30" d="M32.85,45.15l-.12,0a.27.27,0,0,1-.12-.36c.57-1.17,2-1,3.91-.73a21,21,0,0,0,3.43.25,10.59,10.59,0,0,0,3.78-.94,13.65,13.65,0,0,1,5.53-1.18h0c4.65,0,5.75,2.2,5.79,2.29a.27.27,0,0,1-.48.23s-1-2-5.31-2h0a13,13,0,0,0-5.33,1.15,11,11,0,0,1-4,1,21.37,21.37,0,0,1-3.52-.25c-1.89-.25-3-.35-3.36.43A.27.27,0,0,1,32.85,45.15Z"/><path id="_Path_214" data-name="&lt;Path&gt;" class="cls-30" d="M35.56,50.56a.27.27,0,0,1-.19-.45,18.79,18.79,0,0,1,7.41-4.47c2.26-.64,4.07.1,6,.89a10.91,10.91,0,0,0,5.6,1.16c2.77-.32,4.3-1.26,4.38-2,0-.45-.43-.89-1.31-1.19a.27.27,0,1,1,.17-.5c1.56.53,1.72,1.33,1.67,1.75-.13,1.2-2,2.18-4.85,2.5A11.33,11.33,0,0,1,48.57,47c-1.84-.75-3.57-1.46-5.65-.87a18.57,18.57,0,0,0-7.18,4.33A.27.27,0,0,1,35.56,50.56Z"/><path id="_Path_215" data-name="&lt;Path&gt;" class="cls-30" d="M69.73,50.59a6.65,6.65,0,0,1-4-1.91,1.34,1.34,0,0,0-1.17-.44c-1.23.19-2.3,2.13-2.31,2.15a.27.27,0,0,1-.47-.25c0-.09,1.21-2.2,2.7-2.43a1.86,1.86,0,0,1,1.62.59c1.42,1.37,3.46,2,4.19,1.67.13-.06.27-.18.22-.5a.27.27,0,0,1,.53-.07,1,1,0,0,1-.51,1A1.7,1.7,0,0,1,69.73,50.59Z"/><g id="_Group_94" data-name="&lt;Group&gt;"><path id="_Path_216" data-name="&lt;Path&gt;" class="cls-31" d="M36.68,30.22s-4.75,3.32-2.47,6.8,2.87,7.44,2.36,9c0,0,3.1.11,1.88-4.22s-2.67-4.16-3-6.36A8,8,0,0,1,36.68,30.22Z"/><path id="_Path_217" data-name="&lt;Path&gt;" class="cls-32" d="M49.54,31.94s-4.75,3.32-2.47,6.8,2.87,7.44,2.36,9c0,0,3.1.11,1.88-4.22s-2.67-4.16-3-6.36A8,8,0,0,1,49.54,31.94Z"/><path id="_Path_218" data-name="&lt;Path&gt;" class="cls-33" d="M60.16,29.41s-4.75,3.32-2.47,6.8,2.87,7.44,2.36,9c0,0,3.1.11,1.88-4.22s-2.67-4.16-3-6.36A8,8,0,0,1,60.16,29.41Z"/></g><g id="_Group_95" data-name="&lt;Group&gt;"><g id="_Group_96" data-name="&lt;Group&gt;"><polygon id="_Path_219" data-name="&lt;Path&gt;" class="cls-34" points="73.21 37.68 23.09 49.17 23.62 49.61 74.26 38.66 73.21 37.68"/><path id="_Path_220" data-name="&lt;Path&gt;" class="cls-35" d="M74.26,38.66l-.4-.37a5.75,5.75,0,0,1-.87.39c-.67.13-2.13.35-2.8.48a33.67,33.67,0,0,1-5.27,1.2,36.31,36.31,0,0,1-3.66.86c-5.86,1.2-11.19,2.13-16.92,3.46-3.33.8-5.48,1.34-8.95,2.14-1.07.13-3,.66-4.11.79a38.17,38.17,0,0,0-5.61,1.29,11.08,11.08,0,0,0-2.22.57l.17.14Z"/><polygon id="_Path_221" data-name="&lt;Path&gt;" class="cls-36" points="74.26 38.66 74.26 39.76 23.62 50.57 23.62 49.61 74.26 38.66"/><g id="_Group_97" data-name="&lt;Group&gt;" class="cls-28"><path id="_Path_222" data-name="&lt;Path&gt;" class="cls-36" d="M46.21,45.35a26.85,26.85,0,0,1-3.06.93c-6.76,1-12.94,3.18-19.52,3.66v.63L74.26,39.76v-.88a1.45,1.45,0,0,1-.6.34C64.6,42,55.67,43.22,46.21,45.35Z"/></g><polygon id="_Path_223" data-name="&lt;Path&gt;" class="cls-37" points="23.09 49.17 23.09 50.2 23.62 50.57 23.62 49.61 23.09 49.17"/></g><g id="_Group_98" data-name="&lt;Group&gt;"><polygon id="_Path_224" data-name="&lt;Path&gt;" class="cls-34" points="76.21 40.23 25.74 50.05 26.25 50.51 77.23 41.25 76.21 40.23"/><path id="_Path_225" data-name="&lt;Path&gt;" class="cls-35" d="M77.23,41.25l-.38-.38a5.75,5.75,0,0,1-.89.36c-.67.11-2.14.28-2.81.39a33.67,33.67,0,0,1-5.31,1,36.31,36.31,0,0,1-3.69.73c-5.9,1-11.26,1.76-17,2.9-3.36.69-5.52,1.16-9,1.84-1.07.1-3.07.56-4.14.65a38.17,38.17,0,0,0-5.65,1.1,11.07,11.07,0,0,0-2.24.49l.16.15Z"/><polygon id="_Path_226" data-name="&lt;Path&gt;" class="cls-36" points="77.23 41.25 77.19 42.34 26.22 51.46 26.25 50.51 77.23 41.25"/><g id="_Group_99" data-name="&lt;Group&gt;" class="cls-28"><path id="_Path_227" data-name="&lt;Path&gt;" class="cls-36" d="M49,47a26.85,26.85,0,0,1-3.09.83c-6.79.78-13,2.75-19.63,3l0,.63,51-9.12,0-.88a1.45,1.45,0,0,1-.61.32C67.46,44.28,58.5,45.18,49,47Z"/></g><polygon id="_Path_228" data-name="&lt;Path&gt;" class="cls-37" points="25.74 50.05 25.71 51.08 26.22 51.46 26.25 50.51 25.74 50.05"/></g></g></g><g id="_Group_100" data-name="&lt;Group&gt;" class="cls-5"><path id="_Path_229" data-name="&lt;Path&gt;" class="cls-6" d="M58.33,56.23a28.28,28.28,0,0,0,7.22-1.09l2.23-.54c.16,0,.82-.31,1-.21s0,.32-.19.43a8.72,8.72,0,0,1-2.43,1c.72-.18,1.54-.11,2.27-.28a2.89,2.89,0,0,1-1.13.69,6.51,6.51,0,0,1-1.35.46,4.45,4.45,0,0,0,1.14,0,3.34,3.34,0,0,1-1.91,1.16,2,2,0,0,0,1,0,4.15,4.15,0,0,1-1.46.88A2.67,2.67,0,0,0,66,58.47a11.63,11.63,0,0,1-1.15.83,3.87,3.87,0,0,0,.95,0,2.72,2.72,0,0,1-1.41,1.05,4.71,4.71,0,0,0,2.22-.25,5,5,0,0,1-2.22,1.55c-.22.08-.45.14-.68.2l-1.32.35a6.17,6.17,0,0,0-.78,0,1.71,1.71,0,0,0,1.09-.81,13.2,13.2,0,0,1-1.52.19,5,5,0,0,0,1.29-.8l-1.92-.15a3.18,3.18,0,0,0,1.67-.61,4.71,4.71,0,0,1-1.7-.27,3,3,0,0,0,1.7-.78,11.94,11.94,0,0,1-2-.24,3.77,3.77,0,0,0,1.89-.71,9,9,0,0,1-3.53-.19,8.47,8.47,0,0,0,2.57-.77q-.92.08-1.84.1l1.09-.41a8.64,8.64,0,0,1-2.38-.61Z"/></g></g></g></g></g></svg>